<svg width="115" height="17" viewBox="0 0 115 17" fill="none" xmlns="http://www.w3.org/2000/svg">
<path d="M0 16.2188V0.21875H11.25V3.71875H4.34375V6.46875H10.5625V9.96875H4.34375V16.2188H0ZM11.9677 16.2188V0.21875H18.8739C20.0614 0.21875 21.1005 0.434895 21.9911 0.867187C22.8817 1.29948 23.5744 1.92187 24.0692 2.73438C24.564 3.54687 24.8114 4.52083 24.8114 5.65625C24.8114 6.80208 24.5562 7.76823 24.0458 8.55469C23.5406 9.34115 22.8296 9.9349 21.913 10.3359C21.0015 10.737 19.9364 10.9375 18.7177 10.9375H14.5927V7.5625H17.8427C18.3531 7.5625 18.788 7.5 19.1473 7.375C19.5119 7.24479 19.7906 7.03906 19.9833 6.75781C20.1812 6.47656 20.2802 6.10937 20.2802 5.65625C20.2802 5.19792 20.1812 4.82552 19.9833 4.53906C19.7906 4.2474 19.5119 4.03385 19.1473 3.89844C18.788 3.75781 18.3531 3.6875 17.8427 3.6875H16.3114V16.2188H11.9677ZM21.3427 8.875L25.3427 16.2188H20.6239L16.7177 8.875H21.3427ZM29.9392 16.2188H25.2517L30.533 0.21875H36.4705L41.7517 16.2188H37.0642L33.5642 4.625H33.4392L29.9392 16.2188ZM29.0642 9.90625H37.8767V13.1562H29.0642V9.90625ZM52.0514 5.5C51.9837 5.22396 51.8769 4.98177 51.7311 4.77344C51.5853 4.5599 51.403 4.38021 51.1842 4.23438C50.9707 4.08333 50.7207 3.97135 50.4342 3.89844C50.153 3.82031 49.8431 3.78125 49.5045 3.78125C48.7754 3.78125 48.153 3.95573 47.6373 4.30469C47.1269 4.65365 46.7363 5.15625 46.4655 5.8125C46.1998 6.46875 46.067 7.26042 46.067 8.1875C46.067 9.125 46.1946 9.92708 46.4498 10.5938C46.7051 11.2604 47.0853 11.7708 47.5905 12.125C48.0957 12.4792 48.7233 12.6562 49.4733 12.6562C50.1347 12.6562 50.6842 12.5599 51.1217 12.3672C51.5644 12.1745 51.8952 11.901 52.1139 11.5469C52.3327 11.1927 52.442 10.776 52.442 10.2969L53.192 10.375H49.5358V7.28125H56.6295V9.5C56.6295 10.9583 56.3196 12.2057 55.6998 13.2422C55.0853 14.2734 54.2363 15.0651 53.153 15.6172C52.0748 16.1641 50.8379 16.4375 49.442 16.4375C47.8847 16.4375 46.5176 16.1068 45.3405 15.4453C44.1634 14.7839 43.2441 13.8411 42.5827 12.6172C41.9264 11.3932 41.5983 9.9375 41.5983 8.25C41.5983 6.92708 41.7988 5.75521 42.1998 4.73437C42.6061 3.71354 43.1686 2.85156 43.8873 2.14844C44.6061 1.4401 45.4368 0.90625 46.3795 0.546874C47.3222 0.182291 48.3327 -5.96046e-07 49.4108 -5.96046e-07C50.3587 -5.96046e-07 51.2389 0.135416 52.0514 0.40625C52.8691 0.671874 53.5905 1.05208 54.2155 1.54687C54.8457 2.03646 55.3535 2.61719 55.7389 3.28906C56.1243 3.96094 56.3587 4.69792 56.442 5.5H52.0514ZM57.7749 16.2188V0.21875H62.1187V12.7188H68.5874V16.2188H57.7749ZM84.3402 8.21875C84.3402 10 83.9939 11.5026 83.3012 12.7266C82.6085 13.9453 81.6736 14.8698 80.4965 15.5C79.3194 16.125 78.0069 16.4375 76.559 16.4375C75.1006 16.4375 73.7829 16.1224 72.6059 15.4922C71.434 14.8568 70.5017 13.9297 69.809 12.7109C69.1215 11.487 68.7777 9.98958 68.7777 8.21875C68.7777 6.4375 69.1215 4.9375 69.809 3.71875C70.5017 2.49479 71.434 1.57031 72.6059 0.945312C73.7829 0.315104 75.1006 -5.96046e-07 76.559 -5.96046e-07C78.0069 -5.96046e-07 79.3194 0.315104 80.4965 0.945312C81.6736 1.57031 82.6085 2.49479 83.3012 3.71875C83.9939 4.9375 84.3402 6.4375 84.3402 8.21875ZM79.8715 8.21875C79.8715 7.26042 79.7439 6.45312 79.4887 5.79687C79.2387 5.13542 78.8663 4.63542 78.3715 4.29687C77.8819 3.95312 77.2777 3.78125 76.559 3.78125C75.8402 3.78125 75.2335 3.95312 74.7387 4.29687C74.2491 4.63542 73.8767 5.13542 73.6215 5.79687C73.3715 6.45312 73.2465 7.26042 73.2465 8.21875C73.2465 9.17708 73.3715 9.98698 73.6215 10.6484C73.8767 11.3047 74.2491 11.8047 74.7387 12.1484C75.2335 12.487 75.8402 12.6562 76.559 12.6562C77.2777 12.6562 77.8819 12.487 78.3715 12.1484C78.8663 11.8047 79.2387 11.3047 79.4887 10.6484C79.7439 9.98698 79.8715 9.17708 79.8715 8.21875ZM100.97 8.21875C100.97 10 100.624 11.5026 99.9309 12.7266C99.2382 13.9453 98.3033 14.8698 97.1263 15.5C95.9492 16.125 94.6367 16.4375 93.1888 16.4375C91.7304 16.4375 90.4127 16.1224 89.2356 15.4922C88.0638 14.8568 87.1315 13.9297 86.4388 12.7109C85.7513 11.487 85.4075 9.98958 85.4075 8.21875C85.4075 6.4375 85.7513 4.9375 86.4388 3.71875C87.1315 2.49479 88.0638 1.57031 89.2356 0.945312C90.4127 0.315104 91.7304 -5.96046e-07 93.1888 -5.96046e-07C94.6367 -5.96046e-07 95.9492 0.315104 97.1263 0.945312C98.3033 1.57031 99.2382 2.49479 99.9309 3.71875C100.624 4.9375 100.97 6.4375 100.97 8.21875ZM96.5013 8.21875C96.5013 7.26042 96.3736 6.45312 96.1184 5.79687C95.8684 5.13542 95.496 4.63542 95.0013 4.29687C94.5117 3.95312 93.9075 3.78125 93.1888 3.78125C92.47 3.78125 91.8632 3.95312 91.3684 4.29687C90.8789 4.63542 90.5065 5.13542 90.2513 5.79687C90.0013 6.45312 89.8763 7.26042 89.8763 8.21875C89.8763 9.17708 90.0013 9.98698 90.2513 10.6484C90.5065 11.3047 90.8789 11.8047 91.3684 12.1484C91.8632 12.487 92.47 12.6562 93.1888 12.6562C93.9075 12.6562 94.5117 12.487 95.0013 12.1484C95.496 11.8047 95.8684 11.3047 96.1184 10.6484C96.3736 9.98698 96.5013 9.17708 96.5013 8.21875ZM100.91 3.71875V0.21875H114.817V3.71875H110.004V16.2188H105.723V3.71875H100.91Z" fill="url(#paint0_linear_3_1080)"/>
<defs>
<linearGradient id="paint0_linear_3_1080" x1="57.4688" y1="-8.78125" x2="57.4688" y2="24.2188" gradientUnits="userSpaceOnUse">
<stop stop-color="#00D4FF"/>
<stop offset="1" stop-color="#00FFB2"/>
</linearGradient>
</defs>
</svg>
